<svg width="59" height="54" viewBox="0 0 59 54" fill="none" xmlns="http://www.w3.org/2000/svg">
<path d="M29.5002 4.5C22.7397 4.5 17.2085 9.5625 17.2085 15.75V20.25H22.1252V15.75C22.1252 12.0375 25.4439 9 29.5002 9C33.5564 9 36.8752 12.0375 36.8752 15.75V20.25H41.7918V15.75C41.7918 9.5625 36.2606 4.5 29.5002 4.5Z" fill="#424242"/>
<path d="M44.2502 49.5H14.7502C12.046 49.5 9.8335 47.475 9.8335 45V24.75C9.8335 22.275 12.046 20.25 14.7502 20.25H44.2502C46.9543 20.25 49.1668 22.275 49.1668 24.75V45C49.1668 47.475 46.9543 49.5 44.2502 49.5Z" fill="#FB8C00"/>
<path d="M29.5 31.5C28.522 31.5 27.5841 31.8556 26.8925 32.4885C26.201 33.1214 25.8125 33.9799 25.8125 34.875C25.8125 35.7701 26.201 36.6285 26.8925 37.2615C27.5841 37.8944 28.522 38.25 29.5 38.25C30.478 38.25 31.4159 37.8944 32.1075 37.2615C32.799 36.6285 33.1875 35.7701 33.1875 34.875C33.1875 33.9799 32.799 33.1214 32.1075 32.4885C31.4159 31.8556 30.478 31.5 29.5 31.5Z" fill="#C76E00"/>
</svg>
