<svg width="29" height="29" viewBox="0 0 29 29" fill="none" xmlns="http://www.w3.org/2000/svg">
<g clip-path="url(#clip0_2019_53)">
<path d="M14.5002 29C18.8268 29 22.3345 25.4927 22.3345 21.1657C22.3345 17.643 20.0093 14.6638 16.8104 13.6783L16.8104 1.39302C16.8104 1.17348 16.7054 0.967535 16.5272 0.838961L15.5442 0.129423C15.2435 -0.0880199 14.8235 -0.0252623 14.5992 0.271251L12.201 3.44358C12.0164 3.68747 12.0164 4.02415 12.201 4.2681L13.1322 5.49714L13.1322 5.49839L12.2018 6.72658C12.0164 6.97048 12.0169 7.308 12.2018 7.55189L12.8161 8.36231C13.0024 8.60835 13.0007 8.94882 12.8119 9.19323L11.2287 11.2386C11.1355 11.3583 11.0851 11.5052 11.0851 11.6568L11.0851 14.1131C8.46941 15.3819 6.66586 18.063 6.66586 21.1657C6.66592 25.4927 10.1732 29 14.5002 29ZM14.5002 2.48409L15.3238 2.48409L15.3238 13.3746C15.053 13.3463 14.7783 13.3314 14.5002 13.3314L14.5002 2.48409ZM14.4489 23.4699C15.3537 23.4699 16.0876 24.2034 16.0876 25.1082C16.0876 26.0135 15.3537 26.7469 14.4489 26.7469C13.5441 26.7469 12.8102 26.0135 12.8102 25.1082C12.8102 24.2035 13.5442 23.4699 14.4489 23.4699Z" fill="#FFE30E"/>
</g>
<defs>
<clipPath id="clip0_2019_53">
<rect width="29" height="29" fill="white" transform="translate(29 29) rotate(-180)"/>
</clipPath>
</defs>
</svg>
